<mxfile host="app.diagrams.net" modified="2021-03-17T03:11:47.820Z" agent="5.0 (Windows NT 10.0; Win64; x64) AppleWebKit/537.36 (KHTML, like Gecko) Chrome/89.0.4389.82 Safari/537.36" etag="Z0vew8E_uUiCl9LRTCLI" version="14.4.8" type="github">
  <diagram name="Page-1" id="c7488fd3-1785-93aa-aadb-54a6760d102a">
    <mxGraphModel dx="1422" dy="761" grid="1" gridSize="10" guides="1" tooltips="1" connect="1" arrows="1" fold="1" page="1" pageScale="1" pageWidth="1100" pageHeight="850" background="#ffffff" math="0" shadow="0">
      <root>
        <mxCell id="0" />
        <mxCell id="1" parent="0" />
        <mxCell id="k1BW5qvDaEgt-W_ss79P-14" value="Pool" style="swimlane;html=1;childLayout=stackLayout;resizeParent=1;resizeParentMax=0;horizontal=1;startSize=20;horizontalStack=0;rounded=0;shadow=0;glass=0;fillColor=#ffffff;gradientColor=none;" vertex="1" parent="1">
          <mxGeometry x="40" y="40" width="1010" height="500" as="geometry" />
        </mxCell>
        <mxCell id="k1BW5qvDaEgt-W_ss79P-18" value="Lane 3" style="swimlane;html=1;startSize=20;horizontal=0;" vertex="1" parent="k1BW5qvDaEgt-W_ss79P-14">
          <mxGeometry y="20" width="1010" height="120" as="geometry" />
        </mxCell>
        <mxCell id="k1BW5qvDaEgt-W_ss79P-15" value="Lane 1" style="swimlane;html=1;startSize=20;horizontal=0;" vertex="1" parent="k1BW5qvDaEgt-W_ss79P-14">
          <mxGeometry y="140" width="1010" height="120" as="geometry" />
        </mxCell>
        <mxCell id="k1BW5qvDaEgt-W_ss79P-16" value="Lane 2" style="swimlane;html=1;startSize=20;horizontal=0;" vertex="1" parent="k1BW5qvDaEgt-W_ss79P-14">
          <mxGeometry y="260" width="1010" height="120" as="geometry" />
        </mxCell>
        <mxCell id="k1BW5qvDaEgt-W_ss79P-17" value="Lane 3" style="swimlane;html=1;startSize=20;horizontal=0;" vertex="1" parent="k1BW5qvDaEgt-W_ss79P-14">
          <mxGeometry y="380" width="1010" height="120" as="geometry" />
        </mxCell>
      </root>
    </mxGraphModel>
  </diagram>
</mxfile>
